<?xml version="1.0" encoding="utf-8" ?>
<svg xmlns="http://www.w3.org/2000/svg" xmlns:xlink="http://www.w3.org/1999/xlink" width="39" height="36">
	<defs>
		<clipPath id="clip_0">
			<rect width="39" height="36" clip-rule="evenodd"/>
		</clipPath>
	</defs>
	<g clip-path="url(#clip_0)">
		<path fill="rgb(155,155,155)" stroke="none" transform="scale(3 3)" d="M1.66845 9.11376C3.76574 11.0803 7.09258 11.1921 9.32991 9.44979L11.8567 11.8183C12.114 12.0595 12.5408 12.062 12.8028 11.8171C13.0662 11.5696 13.0648 11.1745 12.8042 10.9296L10.2546 8.54032C11.9304 6.44877 11.7529 3.46659 9.72257 1.56348C7.49864 -0.521159 3.89238 -0.521159 1.66845 1.56348C-0.55615 3.64874 -0.55615 7.02913 1.66845 9.11376ZM8.82804 2.40261C10.5581 4.02434 10.5581 6.65353 8.82804 8.27526C7.09794 9.89637 4.29307 9.89637 2.56298 8.27526C0.833555 6.65353 0.833555 4.02434 2.56298 2.40261C4.29307 0.780875 7.09794 0.780875 8.82804 2.40261Z" fill-rule="evenodd"/>
	</g>
</svg>
