<svg width="206" height="49" viewBox="0 0 206 49" fill="none" xmlns="http://www.w3.org/2000/svg">
<path d="M30.3 16.85L26.95 17.3C26.75 15.5667 26.3 14.0667 25.6 12.8C24.9 11.5333 24.0167 10.4833 22.95 9.65C21.8833 8.81667 20.65 8.2 19.25 7.8C17.85 7.4 16.3333 7.2 14.7 7.2C12.2333 7.2 10.2333 7.61666 8.7 8.45C7.2 9.28333 6.45 10.6333 6.45 12.5C6.45 13.6333 6.81667 14.5333 7.55 15.2C8.28333 15.8333 9.25 16.3667 10.45 16.8C11.65 17.2 13.0167 17.5333 14.55 17.8C16.1167 18.0667 17.7 18.3667 19.3 18.7C20.9 19 22.4667 19.4 24 19.9C25.5667 20.3667 26.95 21.0333 28.15 21.9C29.35 22.7333 30.3167 23.8167 31.05 25.15C31.7833 26.45 32.15 28.1 32.15 30.1C32.15 32.1 31.8 33.8333 31.1 35.3C30.4333 36.7667 29.4667 37.9833 28.2 38.95C26.9333 39.9167 25.4167 40.6333 23.65 41.1C21.8833 41.5667 19.9167 41.8 17.75 41.8C15.55 41.8 13.6333 41.55 12 41.05C10.4 40.5833 8.96667 39.9333 7.7 39.1C7.1 38.7 6.53333 38.5 6 38.5C5.76667 38.5 5.4 38.75 4.9 39.25C4.4 39.7167 4.01667 40.3 3.75 41H0.4V27.3L3.7 27C3.83333 28.6 4.25 30.05 4.95 31.35C5.65 32.65 6.56667 33.7667 7.7 34.7C8.86667 35.6 10.25 36.3167 11.85 36.85C13.45 37.35 15.2167 37.6 17.15 37.6C19.9833 37.6 22.15 37.05 23.65 35.95C25.15 34.8167 25.9 33.05 25.9 30.65C25.9 29.8833 25.6667 29.2333 25.2 28.7C24.7333 28.1667 24.1 27.7333 23.3 27.4C22.5 27.0333 21.5833 26.7333 20.55 26.5C19.5167 26.2667 18.4167 26.0667 17.25 25.9C16.0833 25.7 14.9 25.5 13.7 25.3C12.5333 25.1 11.4 24.85 10.3 24.55C8.8 24.15 7.45 23.6667 6.25 23.1C5.05 22.5 4.03333 21.7667 3.2 20.9C2.4 20.0333 1.76667 18.9833 1.3 17.75C0.866667 16.5167 0.65 15.05 0.65 13.35C0.65 12.05 0.866667 10.7833 1.3 9.55C1.73333 8.31667 2.45 7.21667 3.45 6.25C4.48333 5.28333 5.81667 4.51666 7.45 3.95C9.08333 3.35 11.1 3.05 13.5 3.05C15.7333 3.05 17.6167 3.26666 19.15 3.7C20.6833 4.13333 22.0333 4.68333 23.2 5.35C23.9 5.75 24.5167 5.95 25.05 5.95C25.4167 5.95 25.85 5.73333 26.35 5.3C26.8833 4.86666 27.3 4.38333 27.6 3.85H30.3V16.85Z" fill="#C44665"/>
<path d="M69.44 36.48C74.88 36.48 79.24 34.08 79.24 29.16C79.24 24.76 75.72 23.56 69.44 22.12C66.24 21.4 65.24 21.2 65.24 20.16C65.24 18.96 66.64 18.32 68.92 18.32C71.56 18.32 72.76 19.16 73.2 20.56H79C78.24 16.48 75.24 13.52 69.12 13.52C63.32 13.52 59.48 16.2 59.48 20.84C59.48 24.64 62.04 26.04 68.28 27.52C71.6 28.32 73.32 28.44 73.32 29.92C73.32 31.12 72.12 31.72 69.6 31.72C66.04 31.72 64.72 30.52 64.28 28.76H58.48C59.28 33.6 63.56 36.48 69.44 36.48ZM93.8719 36.48C99.1519 36.48 103.992 33.4 104.872 27.6H98.9919C98.3119 30 96.2319 31.2 93.8719 31.2C90.5119 31.2 88.1919 28.68 88.2319 25C88.1919 21.36 90.4319 18.8 93.9119 18.8C96.2319 18.8 98.3119 19.96 98.9919 22.36H104.872C104.032 16.76 99.2719 13.52 93.9119 13.52C87.2719 13.52 82.4319 18.48 82.4319 25C82.4319 31.52 87.2719 36.48 93.8719 36.48ZM121.099 13.52C117.979 13.52 115.579 14.96 114.219 17.84V14H108.499V36H114.219V26.2C114.219 21 117.339 19.4 120.979 19.4C121.619 19.4 121.939 19.44 122.379 19.48V13.6C122.019 13.56 121.619 13.52 121.099 13.52ZM128.371 3.84C126.371 3.84 124.811 5.24 124.811 7.2C124.811 9.16 126.371 10.6 128.371 10.6C130.451 10.6 131.931 9.16 131.931 7.2C131.931 5.24 130.451 3.84 128.371 3.84ZM125.491 36H131.211V14H125.491V36ZM148.683 13.52C145.603 13.52 143.243 14.96 141.723 17.08V14H136.003V46H141.723V33.04C143.283 35.12 145.563 36.48 148.683 36.48C154.403 36.48 158.723 31.76 158.723 25C158.723 18.2 154.323 13.52 148.683 13.52ZM147.363 31.04C144.163 31.04 141.723 28.64 141.723 25C141.723 21.4 144.163 18.96 147.363 18.96C150.563 18.96 152.923 21.4 152.923 25C152.923 28.64 150.523 31.04 147.363 31.04ZM179.078 30.08C177.278 30.72 175.758 31.16 174.478 31.16C172.197 31.16 170.958 29.8 170.958 27.2V19.4H179.118V14H170.958V8L165.238 9.24V14H161.318V19.4H165.238V27.52C165.238 33.84 169.078 36.48 173.478 36.48C176.118 36.48 178.838 35.52 180.038 34.72L179.078 30.08ZM199.556 5.2V17.08C198.036 14.96 195.716 13.52 192.596 13.52C186.956 13.52 182.596 18.2 182.596 25C182.596 31.76 186.916 36.48 192.636 36.48C195.716 36.48 198.036 35.12 199.556 33.04V36H205.276V5.2H199.556ZM193.916 31.04C190.756 31.04 188.356 28.64 188.356 25C188.356 21.4 190.716 18.96 193.916 18.96C197.116 18.96 199.556 21.4 199.556 25C199.556 28.64 197.116 31.04 193.916 31.04Z" fill="#C44665"/>
<path d="M45.6667 1V48.5" stroke="#979797" stroke-opacity="0.620301" stroke-linecap="square"/>
</svg>
